# xmcd CD database file
#
# Track frame offsets:
#	150
#	40110
#	79532
#	98985
#	129147
#	153595
#	174042
#	205317
#	224790
#	271550
#	298962
#
# Disc length: 4455 seconds
#
# Revision: 10
# Processed by: cddbd v1.5.2PL0 Copyright (c) Steve Scherf et al.
# Submitted via: CDex 1.50beta10
#
DISCID=9511650b
DTITLE=THE ALLMAN BROTHERS BAND - THE BEST OF THE ALLMAN BROTHERS BAND LIVE
DYEAR=1996
DGENRE=Blues
TTITLE0=JESSICA
TTITLE1=STORMY MONDAY
TTITLE2=STATESBORO BLUES
TTITLE3=CAN'T LOSE WHAT YOU NEVER HAD
TTITLE4=AIN'T WASTIN' TIME NO MORE
TTITLE5=DONE SOMEBODY WRONG
TTITLE6=RAMBLIN' MAN
TTITLE7=DON'T MESS UP A GOOD THING
TTITLE8=TURN ON YOUR LOVE LIGHT
TTITLE9=WILL THE CIRCLE BE UNBROKEN
TTITLE10=QUEEN OF HEARTS
EXTD=YEAR: 1996
EXTT0=
EXTT1=
EXTT2=
EXTT3=
EXTT4=
EXTT5=
EXTT6=
EXTT7=
EXTT8=
EXTT9=
EXTT10=
PLAYORDER=
